<?xml version="1.0" encoding="UTF-8"?>
<svg width="160px" height="70px" viewBox="0 0 160 70" version="1.1" xmlns="http://www.w3.org/2000/svg" xmlns:xlink="http://www.w3.org/1999/xlink">
    <!-- Generator: Sketch 50.2 (55047) - http://www.bohemiancoding.com/sketch -->
    <title>booking-com-logo-bar</title>
    <desc>Created with Sketch.</desc>
    <defs>
        <polygon id="path-1" points="15.2626794 10.4438521 15.2626794 0.0116470113 0.0816042765 0.0116470113 0.0816042765 10.4438521 15.2626794 10.4438521"></polygon>
    </defs>
    <g id="booking-com-logo-bar" stroke="none" stroke-width="1" fill="none" fill-rule="evenodd">
        <g id="Page-1" transform="translate(25.000000, 26.000000)">
            <path d="M6.84455072,10.1967694 C6.84455072,12.225242 5.24707842,12.1499752 5.24707842,12.1499752 L2.71616549,12.1499752 L2.71616549,9.30232733 C2.71616549,8.44438316 3.54177873,8.40788526 3.54177873,8.40788526 L5.03174266,8.40788526 C6.8782069,8.40788526 6.84455072,10.1967694 6.84455072,10.1967694 Z M2.71616549,3.73663963 C2.71616549,2.97553658 3.44878558,2.943094 3.44878558,2.943094 L4.77046861,2.943094 C6.40877495,2.943094 6.37894696,4.53018526 6.37894696,4.53018526 C6.37894696,6.32993768 4.96155915,6.26310595 4.96155915,6.26310595 L2.71616549,6.26310595 L2.71616549,3.73663963 Z M7.62534222,7.19404593 C7.62534222,7.19404593 9.2542376,6.45467942 9.07925735,3.68927346 C9.07925735,3.68927346 9.29459311,0.540558354 4.09830203,0.540558354 L1.35205334,0.540558354 C1.35205334,0.540558354 0.424993031,0.51314437 6.38031873e-05,1.71773756 L6.38031873e-05,14.559486 L5.22921353,14.559486 C5.22921353,14.559486 9.6447131,14.8058875 9.6447131,10.342761 C9.6447131,10.342761 9.72558364,8.01549219 7.62534222,7.19404593 Z" id="Fill-1" fill="#00112C"></path>
            <path d="M15.695919,12.36906 C14.353819,12.36906 13.2659747,11.1122343 13.2659747,9.56196534 C13.2659747,8.01185862 14.353819,6.75503287 15.695919,6.75503287 C17.0380191,6.75503287 18.1258634,8.01185862 18.1258634,9.56196534 C18.1258634,11.1122343 17.0380191,12.36906 15.695919,12.36906 M15.7295752,4.26425339 C12.7853771,4.26425339 10.3986594,6.64797234 10.3986594,9.58840604 C10.3986594,12.529002 12.7853771,14.9128831 15.7295752,14.9128831 C18.6737733,14.9128831 21.0606505,12.529002 21.0606505,9.58840604 C21.0606505,6.64797234 18.6737733,4.26425339 15.7295752,4.26425339" id="Fill-3" fill="#00112C"></path>
            <path d="M26.9502589,12.36906 C25.6081589,12.36906 24.5203146,11.1122343 24.5203146,9.56196534 C24.5203146,8.01185862 25.6081589,6.75503287 26.9502589,6.75503287 C28.292359,6.75503287 29.3802033,8.01185862 29.3802033,9.56196534 C29.3802033,11.1122343 28.292359,12.36906 26.9502589,12.36906 M26.9839151,4.26425339 C24.0397171,4.26425339 21.6529993,6.64797234 21.6529993,9.58840604 C21.6529993,12.529002 24.0397171,14.9128831 26.9839151,14.9128831 C29.9281132,14.9128831 32.3148309,12.529002 32.3148309,9.58840604 C32.3148309,6.64797234 29.9281132,4.26425339 26.9839151,4.26425339" id="Fill-5" fill="#00112C"></path>
            <path d="M88.445334,12.36906 C87.103234,12.36906 86.0153896,11.1122343 86.0153896,9.56196534 C86.0153896,8.01185862 87.103234,6.75503287 88.445334,6.75503287 C89.7872746,6.75503287 90.8751189,8.01185862 90.8751189,9.56196534 C90.8751189,11.1122343 89.7872746,12.36906 88.445334,12.36906 M88.4789902,4.26425339 C85.5346326,4.26425339 83.1479149,6.64797234 83.1479149,9.58840604 C83.1479149,12.529002 85.5346326,14.9128831 88.4789902,14.9128831 C91.4231883,14.9128831 93.809906,12.529002 93.809906,9.58840604 C93.809906,6.64797234 91.4231883,4.26425339 88.4789902,4.26425339" id="Fill-7" fill="#00112C"></path>
            <path d="M33.1406196,0.540428584 L33.1406196,14.6552241 L36.0843392,14.6552241 L36.0843392,10.4341194 L36.6228381,10.4341194 C36.6228381,10.4341194 36.9458417,10.3976214 37.2286494,10.9862922 L38.7363187,13.9706856 C38.7363187,13.9706856 39.2210634,14.6552241 40.2575462,14.6552241 L42.5999207,14.6552241 L39.4094423,9.17907795 L42.5999207,4.46971229 L39.3421299,4.46971229 C39.3421299,4.46971229 37.4530771,7.40982157 37.3471638,7.57041236 C37.2386984,7.73489627 37.2016925,7.78777768 36.9952892,7.86937078 C36.8829956,7.91381713 36.6978068,7.91284385 36.5083114,7.91284385 L36.0484499,7.91284385 L36.0484499,1.76351404 C36.0484499,1.76351404 36.0304255,0.540428584 34.8457598,0.540428584 L33.1406196,0.540428584 Z" id="Fill-9" fill="#00112C"></path>
            <path d="M97.5776278,11.842014 L97.5776278,8.19352087 L97.5776278,5.6926842 C97.5776278,5.6926842 97.5597629,4.46959874 96.3750972,4.46959874 L94.669957,4.46959874 L94.669957,14.6552728 L97.5776278,14.6552728 L97.5776278,11.842014 Z" id="Fill-11" fill="#00112C"></path>
            <path d="M46.5309467,1.79345855 C46.5309467,2.78393068 45.7413823,3.58688466 44.7674266,3.58688466 C43.7933114,3.58688466 43.0039065,2.78393068 43.0039065,1.79345855 C43.0039065,0.802986425 43.7933114,3.24425852e-05 44.7674266,3.24425852e-05 C45.7413823,3.24425852e-05 46.5309467,0.802986425 46.5309467,1.79345855" id="Fill-13" fill="#00112C"></path>
            <path d="M72.8886335,13.1192948 C72.8886335,14.1097669 72.0990691,14.9128831 71.1249539,14.9128831 C70.1511578,14.9128831 69.3615934,14.1097669 69.3615934,13.1192948 C69.3615934,12.1289849 70.1511578,11.3258687 71.1249539,11.3258687 C72.0990691,11.3258687 72.8886335,12.1289849 72.8886335,13.1192948" id="Fill-15" fill="#00112C"></path>
            <path d="M57.435358,8.0390455 C57.3664506,6.60524545 57.1795072,6.30417826 57.1795072,6.30417826 C56.5063836,4.16848288 54.0292249,4.22314864 54.0292249,4.22314864 C52.3365263,4.22314864 51.2186945,5.09163664 50.8101946,5.47202595 C50.7417657,5.11986169 50.498516,4.46971229 49.6344613,4.46971229 L47.9293212,4.46971229 L47.9293212,14.6552241 L50.8371514,14.6552241 L50.8371514,11.8419653 L50.8371514,10.096392 C50.8371514,6.28130624 53.921557,7.11183642 53.921557,7.11183642 C54.3031001,7.27161615 54.5516135,7.77350295 54.5516135,8.29842397 C54.5516135,8.72553061 54.55273,9.12441219 54.55273,9.12441219 L54.55273,10.9314642 L54.55273,13.4323009 C54.55273,13.4323009 54.5705949,14.6552241 55.7552606,14.6552241 L57.4604008,14.6552241 L57.4604008,8.07019039 L57.435358,8.0390455 Z" id="Fill-17" fill="#00112C"></path>
            <g id="Group-21" transform="translate(94.588225, 4.211372)">
                <mask id="mask-2" fill="white">
                    <use xlink:href="#path-1"></use>
                </mask>
                <g id="Clip-20"></g>
                <path d="M15.2372539,3.82767353 C15.1672299,2.39387347 14.9772559,2.09280628 14.9772559,2.09280628 C14.2932857,-0.0428890976 11.7767285,0.0117766584 11.7767285,0.0117766584 C10.0567541,0.0117766584 9.49544554,0.880264663 9.08040581,1.26065397 C8.89776919,1.40551012 8.75229792,1.56983181 8.63091236,1.74307522 C7.813115,-0.0360761547 5.61621176,0.0117766584 5.61621176,0.0117766584 C3.92335369,0.0117766584 3.37081809,0.880264663 2.96247769,1.26065397 C2.89404877,0.908489712 2.65079912,0.258340306 1.78690396,0.258340306 L0.0816042765,0.258340306 L0.0816042765,10.4438521 L2.98943454,10.4438521 L2.98943454,7.63059336 L2.98943454,5.88502006 C2.98943454,2.06993426 5.50838437,2.90046444 5.50838437,2.90046444 C5.8452652,3.04158969 6.07814683,3.4495552 6.12807283,3.90456245 L6.13939789,6.83818322 L6.13939789,9.22092888 C6.13939789,9.22092888 6.14019543,9.26472637 6.14912788,9.33545121 L6.15343459,10.4438521 L7.34208797,10.4438521 L9.04722815,10.4438521 L9.10784118,10.4438521 L9.10784118,7.63059336 L9.10784118,5.88502006 C9.10784118,2.06993426 11.6671465,2.90046444 11.6671465,2.90046444 C12.0547509,3.06024417 12.307252,3.56213097 12.307252,4.08705199 C12.307252,4.51415863 12.3083686,4.91304021 12.3083686,4.91304021 L12.3083686,6.72009221 L12.3083686,9.22092888 C12.3083686,9.22092888 12.3265525,10.4438521 13.5301996,10.4438521 L15.2627752,10.4438521 L15.2627752,3.85881841 L15.2372539,3.82767353 Z" id="Fill-19" fill="#00112C" mask="url(#mask-2)"></path>
            </g>
            <path d="M82.3873012,6.53684026 C82.3873012,6.53684026 82.3266881,4.22303509 78.5977108,4.22303509 C78.5977108,4.22303509 74.1282976,3.96300777 73.2396787,8.64528387 C73.2396787,8.64528387 72.7614738,12.4504747 75.6270344,14.0847699 C75.6270344,14.0847699 78.1668798,15.6090848 80.9536435,14.4156843 C80.9536435,14.4156843 82.3739025,13.703894 82.9460576,12.9303005 L81.7208769,10.9040989 C81.7208769,10.9040989 80.563168,12.3690438 78.7323356,12.3690438 C78.7323356,12.3690438 75.9994856,12.4785375 75.9994856,9.42293264 C75.9994856,9.42293264 76.0130437,7.4496124 77.8842317,6.81065568 C77.8842317,6.81065568 78.3015045,6.64633399 78.7862493,6.71478784 C78.7862493,6.71478784 79.5668813,6.72857594 79.8632471,7.28983266 C79.8632471,7.28983266 80.132337,8.01541108 80.8324175,8.01541108 L82.3873012,8.01541108 L82.3873012,6.53684026 Z" id="Fill-22" fill="#00112C"></path>
            <path d="M46.2582678,5.71871937 L46.2582678,5.69260309 C46.2582678,5.69260309 46.2404029,4.46967984 45.0557373,4.46967984 L43.3505971,4.46967984 L43.3505971,4.49563391 L45.0557373,4.49563391 C46.2404029,4.49563391 46.2582678,5.71871937 46.2582678,5.71871937" id="Fill-24" fill="#00112C"></path>
            <path d="M46.2582678,11.8680005 L46.2582678,11.8420464 L46.2582678,8.21950738 L46.2582678,5.71867071 C46.2582678,5.71867071 46.2404029,4.49574746 45.0557373,4.49574746 L43.3505971,4.49574746 L43.3505971,14.6814215 L46.2582678,14.6814215 L46.2582678,11.8680005 Z" id="Fill-26" fill="#00112C"></path>
            <path d="M63.3957242,11.9582882 C62.2145677,11.9582882 61.2568818,10.7893819 61.2568818,9.34747119 C61.2568818,7.9057227 62.2145677,6.73681636 63.3957242,6.73681636 C64.5770402,6.73681636 65.534726,7.9057227 65.534726,9.34747119 C65.534726,10.7893819 64.5770402,11.9582882 63.3957242,11.9582882 M68.3261155,13.2634534 L68.3261155,4.46956629 L66.6909993,4.46956629 C66.0481822,4.46956629 65.7637795,4.86131051 65.6377682,5.2013088 C64.8773937,4.58489968 63.9410819,4.22040724 62.9277278,4.22040724 C60.3850113,4.22040724 58.3236898,6.51036711 58.3236898,9.335143 C58.3236898,12.1599189 60.3850113,14.4498788 62.9277278,14.4498788 C63.8972172,14.4498788 64.7958851,14.1165312 65.5377567,13.5481371 C65.2310229,17.1186058 61.3752367,15.72763 61.3752367,15.72763 C60.208436,15.2348271 59.8674079,15.9101195 59.8674079,15.9101195 L59.2212411,17.5713421 C60.6931807,18.5752779 62.7752382,18.6482737 62.7752382,18.6482737 C64.6778492,18.6482737 66.0060721,17.9364834 66.0060721,17.9364834 C68.6985666,16.6220721 68.3261155,13.2634534 68.3261155,13.2634534" id="Fill-28" fill="#00112C"></path>
        </g>
    </g>
</svg>