<svg width="20" height="20" viewBox="0 0 20 20" fill="none" xmlns="http://www.w3.org/2000/svg">
<path d="M2 15C1.4 15 1 14.6 1 14V13C1 12.4 1.4 12 2 12C2.6 12 3 12.4 3 13V14C3 14.6 2.6 15 2 15Z" fill="#00112C"/>
<path d="M6 15C5.4 15 5 14.6 5 14V10C5 9.4 5.4 9 6 9C6.6 9 7 9.4 7 10V14C7 14.6 6.6 15 6 15Z" fill="#00112C"/>
<path d="M10 15C9.4 15 9 14.6 9 14V4C9 3.4 9.4 3 10 3C10.6 3 11 3.4 11 4V14C11 14.6 10.6 15 10 15Z" fill="#00112C"/>
<path d="M14 15C13.4 15 13 14.6 13 14V7C13 6.4 13.4 6 14 6C14.6 6 15 6.4 15 7V14C15 14.6 14.6 15 14 15Z" fill="#00112C"/>
<path d="M18 15C17.4 15 17 14.6 17 14V2C17 1.4 17.4 1 18 1C18.6 1 19 1.4 19 2V14C19 14.6 18.6 15 18 15Z" fill="#00112C"/>
<rect y="17" width="20" height="2" rx="1" fill="#00112C"/>
</svg>
