<?xml version="1.0" encoding="UTF-8"?>
<svg width="160px" height="70px" viewBox="0 0 160 70" version="1.1" xmlns="http://www.w3.org/2000/svg" xmlns:xlink="http://www.w3.org/1999/xlink">
    <!-- Generator: Sketch 50.2 (55047) - http://www.bohemiancoding.com/sketch -->
    <title>ebay-logobar</title>
    <desc>Created with Sketch.</desc>
    <defs></defs>
    <g id="ebay-logobar" stroke="none" stroke-width="1" fill="none" fill-rule="evenodd">
        <g id="EBay_logo" transform="translate(40.000000, 20.000000)" fill="#00112C" fill-rule="nonzero">
            <path d="M10.3643861,6.95758757 C4.72552507,6.95758757 0.0266658587,9.3301046 0.0266658587,16.4878802 C0.0266658587,22.1584143 3.18630853,25.729376 10.5099877,25.729376 C19.1303011,25.729376 19.6828944,20.0978393 19.6828944,20.0978393 L15.5059459,20.0978393 C15.5059459,20.0978393 14.6103731,23.1302054 10.2551848,23.1302054 C6.70800293,23.1302054 4.15673067,20.7537835 4.15673067,17.4228826 L20.1196995,17.4228826 L20.1196995,15.3326932 C20.1196995,12.037385 18.0103475,6.95758757 10.3643861,6.95758757 Z M10.2187843,9.62895736 C13.5953341,9.62895736 15.8972504,11.6804078 15.8972504,14.7550995 L4.24911493,14.7550995 C4.24911493,11.4909382 7.25370213,9.62895736 10.2187843,9.62895736 Z" id="e"></path>
            <path d="M20.1167365,0.0264655312 L20.1167365,22.1347692 C20.1167365,23.3897066 20.0264227,25.1517826 20.0264227,25.1517826 L24.0103515,25.1517826 C24.0103515,25.1517826 24.1533483,23.8862347 24.1533483,22.7296471 C24.1533483,22.7296471 26.1216664,25.7835253 31.4736693,25.7835253 C37.109544,25.7835253 40.9377787,21.9030588 40.9377787,16.3434817 C40.9377787,11.1714872 37.4214213,7.01173686 31.482768,7.01173686 C25.9216387,7.01173686 24.193584,9.98995332 24.193584,9.98995332 L24.193584,0.0264655312 L20.1167365,0.0264655312 Z M30.454456,9.74628099 C34.2816533,9.74628099 36.7153307,12.5632492 36.7153307,16.3434817 C36.7153307,20.3970949 33.9045147,23.0489812 30.4817573,23.0489812 C26.3969963,23.0489812 24.193584,19.8859753 24.193584,16.3795814 C24.193584,13.1123055 26.1707704,9.74628099 30.454456,9.74628099 Z" id="b"></path>
            <path d="M50.8386933,6.95758757 C42.3554533,6.95758757 41.8113893,11.564206 41.8113893,12.3003274 L46.0338373,12.3003274 C46.0338373,12.3003274 46.2552613,9.6109075 50.5474907,9.6109075 C53.3366507,9.6109075 55.4979493,10.8769997 55.4979493,13.3111159 L55.4979493,14.1775061 L50.5474907,14.1775061 C43.9754053,14.1775061 40.5009733,16.0842116 40.5009733,19.9534411 C40.5009733,23.7613186 43.7112373,25.8331623 48.049512,25.8331623 C53.9619067,25.8331623 55.8665013,22.5932239 55.8665013,22.5932239 C55.8665013,23.8818941 55.9666827,25.1517826 55.9666827,25.1517826 L59.7203973,25.1517826 C59.7203973,25.1517826 59.5747947,23.5777161 59.5747947,22.5706616 L59.5747947,13.8661472 C59.5747947,8.1587163 54.932792,6.95758757 50.8386933,6.95758757 Z M55.4979493,16.7766768 L55.4979493,17.9318638 C55.4979493,19.4385425 54.5604747,23.1843546 49.041424,23.1843546 C46.0192107,23.1843546 44.723424,21.6885117 44.723424,19.9534411 C44.723424,16.7970052 49.0870987,16.7766768 55.4979493,16.7766768 Z" id="a"></path>
            <polygon id="y" points="57.3010693 7.68030704 62.0513253 7.68030704 68.8686027 21.22539 75.6702827 7.68030704 79.9733333 7.68030704 67.5841893 31.7948271 63.070536 31.7948271 66.6455787 25.0725757"></polygon>
        </g>
    </g>
</svg>