<svg width="20" height="20" viewBox="0 0 20 20" fill="none" xmlns="http://www.w3.org/2000/svg">
<path fill-rule="evenodd" clip-rule="evenodd" d="M5 10C5 7.23858 7.23858 5 10 5C12.7614 5 15 7.23857 15 10C15 12.7614 12.7614 15 10 15C7.23857 15 5 12.7614 5 10ZM10 7C8.34314 7 7 8.34314 7 10C7 11.6568 8.34315 13 10 13C11.6568 13 13 11.6568 13 10C13 8.34315 11.6568 7 10 7Z" fill="white"/>
<path fill-rule="evenodd" clip-rule="evenodd" d="M0 4C0 2.34315 1.34315 1 3 1C4.65685 1 6 2.34315 6 4C6 5.65685 4.65685 7 3 7C1.34315 7 0 5.65685 0 4ZM3 3C2.44771 3 2 3.44771 2 4C2 4.55229 2.44771 5 3 5C3.55229 5 4 4.55229 4 4C4 3.44771 3.55229 3 3 3Z" fill="white"/>
<path fill-rule="evenodd" clip-rule="evenodd" d="M0 10C0 7.92006 0.635006 5.98843 1.72173 4.38841C1.96576 5.05409 2.55357 5.55395 3.27008 5.67291C2.46635 6.92037 2 8.40572 2 10C2 14.4183 5.58172 18 10 18C11.6332 18 13.1521 17.5106 14.418 16.6705C14.5154 17.3906 14.9959 17.989 15.6476 18.2537C14.0406 19.3554 12.0956 20 10 20C4.47716 20 0 15.5229 0 10ZM18.2536 15.6478C19.3554 14.0407 20 12.0956 20 10C20 4.47716 15.5229 0 10 0C7.86368 0 5.88381 0.669901 4.25902 1.8111C4.92973 2.04504 5.43768 2.62613 5.56762 3.3391C6.83642 2.49311 8.36062 2 10 2C14.4183 2 18 5.58172 18 10C18 11.6333 17.5106 13.1522 16.6704 14.4182C17.3905 14.5155 17.9889 14.996 18.2536 15.6478Z" fill="white"/>
<path fill-rule="evenodd" clip-rule="evenodd" d="M14 17C14 15.3431 15.3431 14 17 14C18.6569 14 20 15.3431 20 17C20 18.6569 18.6569 20 17 20C15.3431 20 14 18.6569 14 17ZM17 16C16.4477 16 16 16.4477 16 17C16 17.5523 16.4477 18 17 18C17.5523 18 18 17.5523 18 17C18 16.4477 17.5523 16 17 16Z" fill="white"/>
</svg>
