<?xml version="1.0" encoding="UTF-8"?>
<svg width="160px" height="70px" viewBox="0 0 160 70" version="1.1" xmlns="http://www.w3.org/2000/svg" xmlns:xlink="http://www.w3.org/1999/xlink">
    <!-- Generator: Sketch 51.2 (57519) - http://www.bohemiancoding.com/sketch -->
    <title>happy-socks-logobar-svg</title>
    <desc>Created with Sketch.</desc>
    <defs></defs>
    <g id="happy-socks-logobar-svg" stroke="none" stroke-width="1" fill="none" fill-rule="evenodd">
        <g id="Group" transform="translate(32.000000, 15.000000)" fill="#00112C" fill-rule="nonzero">
            <path d="M17.2394366,20.4320628 C18.0169014,20.3975801 18.5577465,20.0872352 18.9295775,19.4665456 C19.0309859,19.3286146 19.0647887,19.2251663 19.0647887,19.1562008 C19.0647887,19.0872352 19.0647887,19.0527525 19.0309859,18.983787 C18.9633803,18.8113732 18.7943662,18.7079249 18.5577465,18.6734421 C18.1521127,18.6044766 17.6788732,18.5699939 17.2056338,18.5699939 C17.2056338,11.3630973 17.543662,4.01826973 17.9830986,0.604476625 C18.0507042,0.294131798 17.915493,0.156200763 17.8478873,0.0872352458 C17.7802817,0.0182697286 17.6112676,-0.0506957887 17.3746479,0.0527524872 C16.428169,0.432062832 16.1577465,1.2941318 16.056338,1.98378697 C15.515493,4.88033869 15.0422535,11.4665456 14.9070423,18.4665456 C11.9323944,18.3975801 8.68732394,18.5355111 6.11830986,18.8803387 C6.11830986,18.259649 6.11830986,17.6734421 6.11830986,17.0527525 C6.11830986,11.3286146 6.38873239,5.81137318 6.82816901,2.81137318 L6.82816901,2.77689042 L6.82816901,2.74240766 C6.82816901,2.53551111 6.76056338,2.36309731 6.62535211,2.25964904 C6.52394366,2.19068352 6.35492958,2.15620076 6.15211268,2.25964904 C5.2056338,2.67344214 4.96901408,3.50102835 4.83380282,4.121718 C4.22535211,7.08723525 3.75211268,13.121718 3.71830986,19.1906835 C2.94084507,19.3286146 2.26478873,19.4665456 1.69014085,19.6389594 C0.709859155,19.9148215 0.202816901,20.9493042 0.0338028169,21.8458559 C0.0338028169,21.8803387 0,21.983787 0,22.0872352 C0,22.2251663 0.0338028169,22.3630973 0.169014085,22.5010283 C0.371830986,22.7079249 0.709859155,22.6044766 0.811267606,22.5699939 C1.55492958,22.259649 2.50140845,22.0182697 3.75211268,21.7424077 C3.75211268,24.9148215 3.88732394,27.6389594 4.15774648,29.6044766 C4.36056338,31.3630973 5.4084507,31.9148215 6.21971831,32.0527525 C6.38873239,32.0872352 6.5915493,32.0872352 6.76056338,31.9148215 C6.86197183,31.8113732 6.89577465,31.6734421 6.89577465,31.5699939 C6.89577465,31.5010283 6.89577465,31.4665456 6.89577465,31.4320628 C6.55774648,29.0182697 6.32112676,25.7768904 6.18591549,21.2941318 C8.85633803,20.8458559 12,20.5699939 14.9070423,20.4665456 C14.9070423,24.9493042 15.0760563,28.3975801 15.3464789,30.6389594 C15.5492958,32.4320628 16.5295775,32.983787 17.2732394,33.121718 C17.4760563,33.1562008 17.7464789,33.1562008 17.8816901,32.983787 C17.9492958,32.9148215 18.0169014,32.8113732 18.0169014,32.6389594 C18.0169014,32.6044766 18.0169014,32.5699939 18.0169014,32.5355111 C17.543662,29.6044766 17.3070423,25.2941318 17.2394366,20.4320628 Z" id="Shape"></path>
            <path d="M39.9887324,19.7424077 C39.3126761,19.3286146 38.6366197,19.259649 37.9943662,19.5355111 C37.3521127,19.8113732 36.743662,20.4665456 36.3042254,21.3975801 C36.371831,20.3630973 36.4732394,19.4665456 36.5746479,18.6734421 C36.5746479,18.6734421 36.5746479,18.6389594 36.5746479,18.6389594 C36.5746479,18.6044766 36.6084507,18.5355111 36.6084507,18.4665456 C36.6084507,18.3975801 36.5746479,18.2941318 36.5070423,18.2251663 C36.3380282,18.0872352 36.1352113,18.1906835 36.0338028,18.2251663 C35.4591549,18.4665456 35.1211268,18.983787 34.9521127,19.7424077 C34.4788732,22.5355111 34.1408451,27.5010283 34.1408451,32.0527525 C34.1408451,34.0527525 34.2084507,36.0182697 34.343662,37.6389594 C34.4788732,39.0872352 35.3915493,39.5355111 35.7971831,39.6389594 C35.8985915,39.6734421 36.1352113,39.7424077 36.2704225,39.5699939 C36.4394366,39.4320628 36.4056338,39.1906835 36.371831,39.121718 C36.1014085,36.6389594 35.9661972,33.4320628 35.9661972,29.6389594 C36.0338028,29.7079249 36.1014085,29.7768904 36.2028169,29.8458559 C36.9126761,30.3286146 37.7577465,30.3975801 38.5352113,30.0872352 C39.8197183,29.5699939 40.8338028,28.0527525 41.3070423,25.983787 C42.0169014,23.121718 41.4760563,20.6389594 39.9887324,19.7424077 Z M39.6169014,25.0182697 C39.2788732,26.7768904 38.6028169,28.121718 37.7577465,28.6389594 C37.4873239,28.8113732 37.2169014,28.8458559 37.0478873,28.7768904 C36.4732394,28.6044766 36.2028169,27.6389594 36.2704225,26.2941318 C36.4394366,23.7424077 37.4873239,21.8803387 38.4338028,21.1562008 C38.7042254,20.9493042 38.9408451,20.8458559 39.1098592,20.8803387 C39.4140845,20.983787 40.056338,22.6389594 39.6169014,25.0182697 Z" id="Shape"></path>
            <path d="M61.8591549,21.6044766 L61.115493,21.121718 C57.1943662,18.6044766 52.3267606,15.4320628 52.2591549,11.3286146 C52.2253521,9.36309731 53.0366197,7.32861456 54.456338,5.81137318 C55.8422535,4.36309731 57.6676056,3.53551111 59.5943662,3.50102835 C61.0478873,3.46654559 62.3661972,4.01826973 63.4140845,5.05275249 C64.5971831,6.25964904 65.2732394,8.08723525 65.2394366,9.91482145 C65.2056338,11.3286146 64.7323944,13.259649 63.7859155,14.3630973 C63.515493,14.6734421 63.5830986,14.9148215 63.6507042,15.0527525 C63.8197183,15.3286146 64.2253521,15.2941318 64.3605634,15.259649 C66.2197183,14.983787 67.7070423,12.4320628 67.7070423,9.46654559 C67.7070423,6.01826973 65.6112676,1.98378697 59.7295775,1.94930421 C57.0591549,1.91482145 54.4225352,3.01826973 52.5295775,4.91482145 C50.8056338,6.67344214 49.8253521,8.94930421 49.8253521,11.3630973 C49.8253521,16.6734421 54.7267606,19.8113732 58.6816901,22.3630973 L60.371831,23.4665456 C63.4478873,25.5010283 64.8338028,26.9493042 63.9211268,29.0872352 C63.1774648,30.8113732 60.3042254,31.1906835 58.0394366,30.983787 C55.7746479,30.7768904 52.9690141,29.983787 52.428169,27.3286146 C52.3267606,26.8113732 52.056338,26.7768904 51.9211268,26.7768904 C51.4816901,26.8113732 51.2788732,27.4665456 51.2112676,28.0182697 C51.1774648,28.3975801 51.143662,29.7768904 52.2591549,31.0527525 C53.3746479,32.3630973 55.2,33.0872352 57.6676056,33.1906835 C60.371831,33.3286146 64.0225352,32.5355111 65.4760563,29.7424077 C66.5577465,27.5699939 66.9971831,24.9148215 61.8591549,21.6044766 Z" id="Shape"></path>
            <path d="M93.0591549,24.8113732 C91.943662,22.259649 91.7070423,20.4320628 92.4169014,19.7768904 C92.5859155,19.6734421 92.6535211,19.5010283 92.6873239,19.3286146 C92.6873239,19.2251663 92.6873239,19.0872352 92.5183099,18.9148215 C92.2478873,18.6389594 91.943662,18.4320628 91.6056338,18.4320628 C91.3014085,18.4320628 90.9971831,18.5355111 90.7267606,18.8113732 C89.7464789,19.7424077 88.9690141,21.5355111 88.3605634,24.259649 C88.3267606,24.2251663 88.3267606,24.2251663 88.2929577,24.1906835 C88.0901408,24.121718 87.9549296,24.259649 87.8873239,24.3286146 C87.6169014,24.6044766 87.5492958,25.0182697 87.5492958,25.3975801 C87.5492958,25.7424077 87.6169014,26.0182697 87.6507042,26.1562008 C87.7183099,26.3975801 87.7859155,26.6044766 87.8197183,26.8113732 C87.7859155,26.8803387 87.7521127,27.0527525 87.7521127,27.0527525 C87.7183099,27.1906835 87.6507042,27.3630973 87.6169014,27.5010283 C87.2112676,28.2941318 86.7380282,28.7768904 86.3323944,28.983787 C86.0619718,29.1562008 85.7915493,29.1906835 85.5887324,29.121718 C85.115493,28.983787 84.5070423,27.9148215 84.2366197,26.2941318 C85.656338,25.5010283 86.6366197,24.1906835 86.9408451,22.6734421 C87.0084507,22.3630973 87.0422535,22.0527525 87.0422535,21.7768904 C87.0422535,20.7768904 86.7380282,19.8458559 86.1295775,19.1562008 C85.656338,18.6044766 85.115493,18.3286146 84.5746479,18.2941318 C84.0338028,18.2941318 83.4929577,18.5355111 83.0535211,19.0182697 C82.7830986,19.3286146 82.2084507,20.0527525 81.7352113,21.3630973 C81.8028169,17.0182697 82.2084507,12.7768904 82.6140845,10.0182697 L82.6140845,10.0527525 C82.6816901,9.84585594 82.6140845,9.7079249 82.5464789,9.63895938 C82.4788732,9.56999387 82.343662,9.50102835 82.1408451,9.53551111 L82.1070423,9.53551111 L82.0732394,9.53551111 C81.4985915,9.77689042 81.0929577,10.3286146 80.9577465,11.0872352 C80.1126761,15.0182697 79.7408451,21.0527525 80.0112676,26.121718 C79.5042254,27.3975801 78.5577465,28.5355111 77.6788732,28.9493042 C77.2732394,29.121718 76.8676056,29.121718 76.5295775,28.9493042 C75.8535211,28.6044766 75.4478873,27.1906835 75.515493,25.3286146 C75.6169014,22.983787 76.4619718,21.0182697 77.0704225,20.5010283 C77.171831,20.3975801 77.2732394,20.3975801 77.3070423,20.3975801 C77.3408451,20.3975801 77.3746479,20.4320628 77.4422535,20.5355111 C77.7126761,20.983787 77.8478873,22.3630973 77.3408451,23.7768904 C77.3408451,23.8458559 77.3070423,23.983787 77.3746479,24.121718 C77.4760563,24.259649 77.6112676,24.259649 77.7802817,24.259649 L77.8140845,24.259649 C78.5577465,24.2251663 79.3352113,23.3286146 79.3352113,21.8803387 C79.3352113,20.8458559 78.7605634,19.8803387 77.8478873,19.2941318 C77.3408451,18.9493042 76.7323944,18.9493042 76.1577465,19.2251663 C75.684507,19.4665456 75.2788732,19.8803387 74.9070423,20.4320628 C74.2985915,21.2251663 73.3859155,22.5010283 73.3183099,22.5699939 C73.284507,22.6044766 72.9802817,22.9148215 72.9464789,22.983787 C72.6422535,21.7079249 72.0676056,20.7079249 71.3577465,20.2251663 C71.0535211,20.0182697 70.715493,19.9148215 70.4112676,19.9493042 C70.0056338,19.5355111 69.5661972,19.5699939 69.2619718,19.7079249 C68.2140845,20.2941318 67.1661972,22.3286146 66.9295775,24.3286146 C66.4225352,28.5699939 68.5183099,29.7768904 69.4309859,30.0872352 C70.2084507,30.3630973 71.0197183,30.2251663 71.6619718,29.7424077 C72.6422535,28.9493042 73.1830986,27.3975801 73.1830986,25.3630973 C73.1830986,25.0527525 73.1830986,24.7424077 73.1492958,24.4320628 C73.3521127,24.1906835 73.5549296,23.983787 73.7577465,23.7079249 C73.7239437,23.983787 73.6901408,24.2251663 73.656338,24.5355111 C73.284507,28.8458559 75.2450704,30.0527525 76.4619718,30.3975801 C77.3746479,30.6389594 78.2535211,30.5355111 78.9971831,30.0872352 C79.4704225,29.7768904 79.8760563,29.3630973 80.2140845,28.8458559 C80.2140845,28.8803387 80.2140845,28.8803387 80.2140845,28.9148215 C80.3492958,30.2941318 81.0253521,30.7424077 81.6338028,30.983787 L81.6676056,30.983787 L81.7014085,30.983787 C81.7690141,30.983787 82.0394366,31.0182697 82.1746479,30.8803387 C82.2760563,30.7768904 82.3098592,30.6389594 82.2760563,30.4665456 C81.3971831,24.8458559 83.3915493,20.6734421 84.6760563,20.0872352 C84.9464789,19.9493042 85.0816901,20.0527525 85.1492958,20.1562008 C85.3859155,20.4665456 85.4535211,21.1562008 85.3183099,21.9148215 C85.2169014,22.4665456 84.6760563,24.3630973 82.6816901,25.4320628 C82.3774648,25.6389594 82.2422535,25.9493042 82.3098592,26.2941318 C82.5802817,28.6044766 83.8309859,30.2941318 85.4873239,30.6044766 C86.3661972,30.7768904 87.1774648,30.6044766 87.8535211,30.0527525 C88.2253521,29.7424077 88.5295775,29.3286146 88.7661972,28.8458559 C89.3408451,29.7079249 90.0169014,30.259649 90.7943662,30.4320628 C91.6056338,30.6044766 92.4507042,30.3630973 93.1267606,29.7079249 C94.0056338,28.7079249 94.0394366,27.0872352 93.0591549,24.8113732 Z M70.2760563,21.1562008 C70.6140845,21.2251663 71.0197183,22.0527525 71.2225352,23.3286146 C70.715493,23.0527525 70.4450704,22.3975801 70.3774648,22.1906835 C70.2760563,21.8803387 70.2422535,21.6044766 70.2422535,21.4320628 C70.2422535,21.2941318 70.2422535,21.1906835 70.2760563,21.1562008 Z M71.3577465,25.0872352 C71.3577465,27.0527525 70.8169014,28.3975801 70.2760563,28.8458559 C70.1070423,28.983787 69.971831,29.0182697 69.8366197,28.983787 C69.5661972,28.9148215 68.7211268,27.983787 68.7211268,25.8803387 C68.7211268,25.6389594 68.7211268,25.3975801 68.7549296,25.121718 C68.8225352,24.3975801 68.9577465,23.7079249 69.1267606,23.121718 C69.4647887,24.121718 70.2084507,24.9493042 71.3577465,25.0872352 Z M92.0788732,28.7768904 C91.943662,28.9148215 91.7070423,28.9148215 91.571831,28.8803387 C90.8957746,28.7768904 89.8478873,28.0182697 89.171831,26.6044766 C89.171831,26.5699939 89.171831,26.5699939 89.171831,26.5355111 C89.171831,26.5010283 89.171831,26.5010283 89.171831,26.4665456 C89.2056338,26.2941318 89.2732394,26.0872352 89.2732394,26.0872352 C89.5774648,24.8113732 89.8816901,23.4320628 90.3549296,22.2941318 C90.4225352,23.1562008 90.7267606,24.2251663 91.2676056,25.4665456 C91.2676056,25.4665456 91.3690141,25.6734421 91.3690141,25.6734421 C91.8084507,26.8113732 92.4507042,28.3286146 92.0788732,28.7768904 Z" id="Shape"></path>
            <path d="M32.3492958,19.7424077 C31.6732394,19.3286146 30.9971831,19.259649 30.3549296,19.5355111 C29.7126761,19.8113732 29.1042254,20.4665456 28.6647887,21.3975801 C28.7323944,20.3630973 28.8338028,19.4665456 28.9352113,18.6734421 C28.9352113,18.6734421 28.9352113,18.6389594 28.9352113,18.6389594 C28.9352113,18.6044766 28.9690141,18.5355111 28.9690141,18.4665456 C28.9690141,18.3975801 28.9352113,18.2941318 28.8676056,18.2251663 C28.6985915,18.0872352 28.4957746,18.1906835 28.3943662,18.2251663 C27.8197183,18.4665456 27.4816901,18.983787 27.3126761,19.7424077 C27.0084507,21.5010283 26.771831,24.121718 26.6366197,26.983787 C26.2309859,28.0872352 25.6901408,28.6734421 25.4873239,28.6389594 C25.4873239,28.6389594 25.4197183,28.6044766 25.3859155,28.5010283 C24.8788732,27.6734421 24.6760563,24.1562008 25.4873239,20.7424077 C25.5211268,20.5010283 25.4535211,20.3975801 25.3859155,20.3286146 C25.3183099,20.259649 25.1830986,20.1906835 24.9802817,20.2251663 C24.8450704,20.259649 24.5408451,20.3630973 24.2704225,20.6389594 C24.0676056,20.2941318 23.7971831,19.9493042 23.4253521,19.7079249 C22.884507,19.3630973 22.2760563,19.3286146 21.6676056,19.6044766 C20.4169014,20.121718 19.3690141,21.7768904 18.7943662,24.1562008 C17.915493,27.8113732 19.0985915,29.6734421 20.5183099,30.1906835 C21.228169,30.4665456 21.8704225,30.4665456 22.4112676,30.1562008 C22.9521127,29.8458559 23.3577465,29.2941318 23.6619718,28.4320628 C23.9661972,29.259649 24.4732394,29.7768904 25.1492958,30.0527525 C25.656338,30.2251663 26.0957746,30.2251663 26.5352113,30.0182697 C26.5352113,30.7079249 26.5014085,31.3975801 26.5014085,32.0872352 C26.5014085,34.0872352 26.5690141,36.0527525 26.7042254,37.6734421 C26.8394366,39.121718 27.7521127,39.5699939 28.1577465,39.6734421 C28.2591549,39.7079249 28.4619718,39.7768904 28.6309859,39.6044766 C28.8,39.4665456 28.7661972,39.2251663 28.7323944,39.1562008 C28.4619718,36.6734421 28.3267606,33.4665456 28.3267606,29.6734421 C28.3943662,29.7424077 28.4619718,29.8113732 28.5633803,29.8803387 C29.2732394,30.3630973 30.1183099,30.4320628 30.8957746,30.121718 C32.1802817,29.6044766 33.1943662,28.0872352 33.6676056,26.0182697 C34.3774648,23.121718 33.8366197,20.6389594 32.3492958,19.7424077 Z M23.3915493,23.2251663 C23.256338,26.1906835 22.3774648,28.2251663 21.6,28.8458559 C21.4309859,28.983787 21.2957746,29.0182697 21.1943662,29.0182697 C20.8225352,28.9493042 20.3830986,28.2251663 20.3830986,26.7424077 C20.3830986,26.2941318 20.4169014,25.7424077 20.5183099,25.1562008 C20.8225352,23.1562008 21.8028169,21.3975801 22.5126761,20.9148215 C22.6816901,20.8113732 22.7492958,20.8113732 22.7830986,20.8113732 C23.0873239,20.9148215 23.4591549,21.7768904 23.3915493,23.2251663 Z M31.9774648,25.0182697 C31.6394366,26.7768904 30.9633803,28.121718 30.1183099,28.6389594 C29.8478873,28.8113732 29.5774648,28.8458559 29.4084507,28.7768904 C28.8676056,28.6044766 28.5633803,27.6389594 28.6309859,26.2941318 C28.8,23.7424077 29.8478873,21.8803387 30.7943662,21.1562008 C31.0647887,20.9493042 31.3014085,20.8458559 31.4704225,20.8803387 C31.7746479,20.983787 32.4169014,22.6389594 31.9774648,25.0182697 Z" id="Shape"></path>
            <path d="M48.2704225,20.1562008 C48.2704225,20.0182697 48.2704225,19.8803387 48.1352113,19.7424077 C48,19.6389594 47.8309859,19.6734421 47.6957746,19.7079249 C47.0873239,19.8458559 46.715493,20.259649 46.4788732,21.1562008 C46.3098592,21.8803387 46.2084507,23.0182697 46.1070423,24.3630973 L46.0056338,25.5699939 C45.7014085,28.7079249 45.0253521,28.983787 44.8901408,29.0182697 C44.6873239,29.0527525 44.4169014,28.7424077 44.2140845,28.1906835 C43.5380282,26.4665456 43.8084507,22.121718 44.2478873,19.8113732 C44.2816901,19.6734421 44.2816901,19.5010283 44.1802817,19.3630973 C44.0450704,19.2251663 43.9098592,19.259649 43.7408451,19.2941318 C43.2338028,19.3630973 42.828169,19.8803387 42.6591549,20.6044766 C41.915493,23.9148215 41.7802817,28.1562008 42.9971831,29.8803387 C43.6056338,30.7079249 44.5859155,30.8803387 45.3633803,30.2941318 C45.7014085,30.0527525 45.971831,29.7424077 46.2084507,29.3630973 C46.2422535,30.7079249 46.3098592,31.9493042 46.4112676,33.0527525 C46.4788732,33.7424077 46.5126761,34.3286146 46.5126761,34.8458559 C46.5126761,36.2251663 46.3098592,37.0182697 45.8366197,37.3286146 C45.5661972,37.5010283 45.2619718,37.5355111 44.9577465,37.3975801 C44.0788732,37.0527525 43.2676056,35.7079249 42.828169,33.8458559 C42.7605634,33.5010283 42.5239437,33.4320628 42.456338,33.4320628 C42.2873239,33.3975801 42.084507,33.5355111 41.9830986,33.7424077 C41.8140845,34.121718 41.6450704,34.8458559 41.8816901,36.0872352 C42.1859155,37.5699939 42.9971831,38.6734421 43.9774648,39.0527525 C44.5183099,39.259649 45.3971831,39.3286146 46.4450704,38.5010283 C47.4591549,37.7079249 48.5746479,36.121718 48.2704225,33.0182697 C48.0676056,30.8458559 47.6619718,25.3630973 48.2704225,20.1562008 Z" id="Shape"></path>
            <path d="M94.3098592,18.9493042 C93.4647887,18.9493042 92.856338,18.2941318 92.856338,17.4665456 C92.856338,16.6389594 93.4647887,15.9493042 94.3098592,15.9493042 C95.1549296,15.9493042 95.7633803,16.6044766 95.7633803,17.4665456 C95.7633803,18.259649 95.1549296,18.9493042 94.3098592,18.9493042 Z M94.3098592,16.1906835 C93.6,16.1906835 93.1267606,16.7079249 93.1267606,17.4320628 C93.1267606,18.1562008 93.6,18.6734421 94.3098592,18.6734421 C95.0197183,18.6734421 95.4929577,18.1562008 95.4929577,17.4320628 C95.4929577,16.7079249 95.0535211,16.1906835 94.3098592,16.1906835 Z M94.6478873,18.1906835 L94.3774648,17.6044766 L94.0732394,17.6044766 L94.0732394,18.1906835 L93.8028169,18.1906835 L93.8028169,16.6389594 L94.3774648,16.6389594 C94.6816901,16.6389594 94.9183099,16.8113732 94.9183099,17.121718 C94.9183099,17.3286146 94.8169014,17.5010283 94.6478873,17.5699939 L94.9183099,18.1906835 L94.6478873,18.1906835 Z M94.3774648,16.8803387 L94.0732394,16.8803387 L94.0732394,17.3630973 L94.3774648,17.3630973 C94.5464789,17.3630973 94.6478873,17.2941318 94.6478873,17.121718 C94.6478873,16.9493042 94.5464789,16.8803387 94.3774648,16.8803387 Z" id="Shape"></path>
        </g>
    </g>
</svg>