<?xml version="1.0" encoding="UTF-8"?>
<svg width="40px" height="40px" viewBox="0 0 40 40" version="1.1" xmlns="http://www.w3.org/2000/svg" xmlns:xlink="http://www.w3.org/1999/xlink">
    <!-- Generator: Sketch 51.2 (57519) - http://www.bohemiancoding.com/sketch -->
    <title>icon_world_green</title>
    <desc>Created with Sketch.</desc>
    <defs></defs>
    <g id="icon_world_green" stroke="none" stroke-width="1" fill="none" fill-rule="evenodd">
        <g id="world-icon-black-copy" fill="#0ABF53" fill-rule="nonzero">
            <g id="Group">
                <path d="M20,0 C9,0 0,9 0,20 C0,31 9,40 20,40 C31,40 40,31 40,20 C40,9 31,0 20,0 Z M18.2,37.9 C18.2,37.4 17.7,37 17.2,37 C16.8,37 16.4,37.3 16.3,37.6 C8.2,35.9 2,28.7 2,20 C2,10.1 10.1,2 20,2 C23.8,2 27.4,3.2 30.3,5.3 C30.4,5.7 30.8,6 31.2,6 C31.2,6 31.2,6 31.2,6 C31.7,6.4 32.1,6.8 32.6,7.2 C32.4,7.4 32.2,7.7 32.2,8 C32.2,8.6 32.6,9 33.2,9 C33.5,9 33.7,8.9 33.9,8.7 C34.3,9.1 34.6,9.6 34.9,10.1 C34.5,10.2 34.2,10.6 34.2,11 C34.2,11.6 34.6,12 35.2,12 C35.5,12 35.7,11.9 35.9,11.7 C36.2,12.2 36.4,12.7 36.6,13.2 C36.4,13.4 36.2,13.7 36.2,14 C36.2,14.6 36.6,15 37.2,15 C37.2,15 37.2,15 37.2,15 C37.6,16.4 37.8,17.8 37.9,19.3 C37.7,19.1 37.5,19 37.2,19 C36.6,19 36.2,19.4 36.2,20 C36.2,20.6 36.6,21 37.2,21 C37.5,21 37.7,20.9 37.9,20.7 C37.8,22.2 37.6,23.6 37.2,25 C37.2,25 37.2,25 37.2,25 C36.6,25 36.2,25.4 36.2,26 C36.2,26.3 36.4,26.6 36.6,26.8 C36.4,27.3 36.2,27.8 35.9,28.3 C35.7,28.1 35.5,28 35.2,28 C34.6,28 34.2,28.4 34.2,29 C34.2,29.5 34.5,29.8 34.9,29.9 C34.6,30.4 34.2,30.8 33.9,31.3 C33.7,31.1 33.5,31 33.2,31 C32.6,31 32.2,31.4 32.2,32 C32.2,32.3 32.4,32.6 32.6,32.8 C32.2,33.2 31.7,33.6 31.2,34 C31.2,34 31.2,34 31.2,34 C30.7,34 30.4,34.3 30.3,34.7 C28.9,35.7 27.3,36.5 25.6,37 C25.5,37 25.4,37 25.2,37 C24.9,37 24.6,37.2 24.4,37.4 C23.7,37.6 22.9,37.7 22.2,37.8 C22.1,37.3 21.7,37 21.2,37 C20.7,37 20.2,37.4 20.2,38 C20.1,38 20,38 19.9,38 C19.4,38 18.8,38 18.2,37.9 Z" id="Shape"></path>
                <circle id="Oval" cx="27.2" cy="5" r="1"></circle>
                <circle id="Oval" cx="19.2" cy="5" r="1"></circle>
                <circle id="Oval" cx="25.2" cy="8" r="1"></circle>
                <circle id="Oval" cx="21.2" cy="8" r="1"></circle>
                <circle id="Oval" cx="17.2" cy="8" r="1"></circle>
                <circle id="Oval" cx="29.2" cy="8" r="1"></circle>
                <circle id="Oval" cx="31.2" cy="11" r="1"></circle>
                <circle id="Oval" cx="27.2" cy="11" r="1"></circle>
                <circle id="Oval" cx="23.2" cy="11" r="1"></circle>
                <circle id="Oval" cx="21.2" cy="14" r="1"></circle>
                <circle id="Oval" cx="17.2" cy="14" r="1"></circle>
                <circle id="Oval" cx="25.2" cy="14" r="1"></circle>
                <circle id="Oval" cx="29.2" cy="14" r="1"></circle>
                <circle id="Oval" cx="33.2" cy="14" r="1"></circle>
                <circle id="Oval" cx="21.2" cy="20" r="1"></circle>
                <circle id="Oval" cx="17.2" cy="20" r="1"></circle>
                <circle id="Oval" cx="25.2" cy="20" r="1"></circle>
                <circle id="Oval" cx="25.2" cy="26" r="1"></circle>
                <circle id="Oval" cx="29.2" cy="26" r="1"></circle>
                <circle id="Oval" cx="29.2" cy="20" r="1"></circle>
                <circle id="Oval" cx="33.2" cy="20" r="1"></circle>
                <circle id="Oval" cx="33.2" cy="26" r="1"></circle>
                <circle id="Oval" cx="19.2" cy="11" r="1"></circle>
                <circle id="Oval" cx="15.2" cy="11" r="1"></circle>
                <circle id="Oval" cx="11.2" cy="11" r="1"></circle>
                <circle id="Oval" cx="7.2" cy="11" r="1"></circle>
                <circle id="Oval" cx="9.2" cy="14" r="1"></circle>
                <circle id="Oval" cx="19.2" cy="17" r="1"></circle>
                <circle id="Oval" cx="15.2" cy="17" r="1"></circle>
                <circle id="Oval" cx="23.2" cy="17" r="1"></circle>
                <circle id="Oval" cx="27.2" cy="17" r="1"></circle>
                <circle id="Oval" cx="31.2" cy="17" r="1"></circle>
                <circle id="Oval" cx="35.2" cy="17" r="1"></circle>
                <circle id="Oval" cx="35.2" cy="23" r="1"></circle>
                <circle id="Oval" cx="31.2" cy="23" r="1"></circle>
                <circle id="Oval" cx="27.2" cy="23" r="1"></circle>
                <circle id="Oval" cx="23.2" cy="23" r="1"></circle>
                <circle id="Oval" cx="31.2" cy="29" r="1"></circle>
                <circle id="Oval" cx="27.2" cy="29" r="1"></circle>
                <circle id="Oval" cx="23.2" cy="29" r="1"></circle>
                <circle id="Oval" cx="19.2" cy="29" r="1"></circle>
                <circle id="Oval" cx="15.2" cy="29" r="1"></circle>
                <circle id="Oval" cx="11.2" cy="29" r="1"></circle>
                <circle id="Oval" cx="21.2" cy="26" r="1"></circle>
                <circle id="Oval" cx="17.2" cy="26" r="1"></circle>
                <circle id="Oval" cx="17.2" cy="32" r="1"></circle>
                <circle id="Oval" cx="13.2" cy="26" r="1"></circle>
                <circle id="Oval" cx="13.2" cy="32" r="1"></circle>
                <circle id="Oval" cx="25.2" cy="32" r="1"></circle>
                <circle id="Oval" cx="21.2" cy="32" r="1"></circle>
                <circle id="Oval" cx="29.2" cy="32" r="1"></circle>
                <circle id="Oval" cx="15.2" cy="35" r="1"></circle>
                <circle id="Oval" cx="23.2" cy="35" r="1"></circle>
                <circle id="Oval" cx="19.2" cy="35" r="1"></circle>
                <circle id="Oval" cx="27.2" cy="35" r="1"></circle>
            </g>
        </g>
    </g>
</svg>