<?xml version="1.0" encoding="utf-8"?>
<!-- Generator: Adobe Illustrator 24.0.0, SVG Export Plug-In . SVG Version: 6.00 Build 0)  -->
<svg version="1.1" id="Layer_1" xmlns="http://www.w3.org/2000/svg" xmlns:xlink="http://www.w3.org/1999/xlink" x="0px" y="0px"
	 viewBox="0 0 40 40" style="enable-background:new 0 0 40 40;" xml:space="preserve">
<style type="text/css">
	.st0{fill:#0ABF53;}
</style>
<g>
	<path class="st0" d="M16,26H3c-1.7,0-3,1.3-3,3v8c0,1.7,1.3,3,3,3h13c1.7,0,3-1.3,3-3v-8C19,27.3,17.7,26,16,26z M3,28h13
		c0.6,0,1,0.4,1,1v1H2v-1C2,28.4,2.4,28,3,28z M16,38H3c-0.6,0-1-0.4-1-1v-5h15v5C17,37.6,16.6,38,16,38z"/>
	<path class="st0" d="M37,26H24c-1.7,0-3,1.3-3,3v8c0,1.7,1.3,3,3,3h13c1.7,0,3-1.3,3-3v-8C40,27.3,38.7,26,37,26z M24,28h13
		c0.6,0,1,0.4,1,1v1H23v-1C23,28.4,23.4,28,24,28z M37,38H24c-0.6,0-1-0.4-1-1v-5h15v5C38,37.6,37.6,38,37,38z"/>
	<path class="st0" d="M16,10H3c-1.7,0-3,1.3-3,3v8c0,1.7,1.3,3,3,3h13c1.7,0,3-1.3,3-3v-8C19,11.3,17.7,10,16,10z M3,12h13
		c0.6,0,1,0.4,1,1v1H2v-1C2,12.4,2.4,12,3,12z M16,22H3c-0.6,0-1-0.4-1-1v-5h15v5C17,21.6,16.6,22,16,22z"/>
	<path class="st0" d="M37,10H24c-1.7,0-3,1.3-3,3v8c0,1.7,1.3,3,3,3h13c1.7,0,3-1.3,3-3v-8C40,11.3,38.7,10,37,10z M24,12h13
		c0.6,0,1,0.4,1,1v1H23v-1C23,12.4,23.4,12,24,12z M37,22H24c-0.6,0-1-0.4-1-1v-5h15v5C38,21.6,37.6,22,37,22z"/>
	<path class="st0" d="M8,18H5c-0.6,0-1,0.4-1,1s0.4,1,1,1h3c0.6,0,1-0.4,1-1S8.6,18,8,18z"/>
	<path class="st0" d="M35,34h-3c-0.6,0-1,0.4-1,1s0.4,1,1,1h3c0.6,0,1-0.4,1-1S35.6,34,35,34z"/>
	<circle class="st0" cx="32" cy="19" r="1"/>
	<circle class="st0" cx="35" cy="19" r="1"/>
	<circle class="st0" cx="5" cy="35" r="1"/>
	<circle class="st0" cx="8" cy="35" r="1"/>
</g>
</svg>
