<?xml version="1.0" encoding="utf-8"?>
<!-- Generator: Adobe Illustrator 24.1.0, SVG Export Plug-In . SVG Version: 6.00 Build 0)  -->
<svg version="1.1" id="Layer_1" xmlns="http://www.w3.org/2000/svg" xmlns:xlink="http://www.w3.org/1999/xlink" x="0px" y="0px"
	 viewBox="0 0 120 20.88" style="enable-background:new 0 0 120 20.88;" xml:space="preserve">
<style type="text/css">
	.st0{fill:#00112C;}
</style>
<path class="st0" d="M0,0.36h6.12v15.12h9.6v4.92H0V0.36z"/>
<path class="st0" d="M30.84,0.36h6.12v11.88c0,1.2-0.24,2.28-0.6,3.36c-0.36,1.08-0.96,1.92-1.68,2.76
	c-0.84,0.84-1.56,1.32-2.52,1.68c-1.2,0.48-2.64,0.72-4.32,0.72c-0.96,0-2.04-0.12-3.12-0.24c-1.2-0.12-2.16-0.36-2.88-0.84
	c-0.72-0.36-1.44-0.96-2.16-1.68c-0.6-0.72-1.08-1.56-1.32-2.28c-0.36-1.32-0.6-2.4-0.6-3.36v-12H24V12.6
	c0,1.08,0.36,1.92,0.96,2.52c0.6,0.6,1.44,0.96,2.52,0.96c1.08,0,1.92-0.36,2.52-0.96c0.6-0.6,0.96-1.44,0.96-2.52V0.36H30.84z"/>
<path class="st0" d="M61.2,0.36h6.12v6.96h6.72V0.36h6.24V20.4h-6.24v-8.04h-6.72v8.04H61.2V0.36z"/>
<path class="st0" d="M39.96,13.32h5.88c0.12,0.96,0.36,1.68,0.72,2.16c0.6,0.84,1.56,1.2,2.76,1.2c0.84,0,1.56-0.24,2.04-0.6
	c0.48-0.36,0.72-0.84,0.72-1.44c0-0.48-0.24-0.96-0.72-1.44c-0.48-0.36-1.56-0.84-3.12-1.2c-2.76-0.6-4.68-1.44-5.76-2.4
	c-1.2-0.96-1.8-2.28-1.8-3.84c0-1.08,0.24-2.04,0.84-2.88c0.6-0.96,1.44-1.68,2.64-2.16C45.48,0.24,47.16,0,49.2,0
	c2.52,0,4.44,0.48,5.88,1.44c1.32,0.96,2.16,2.76,2.4,4.92H51.6c-0.12-0.96-0.48-1.56-0.96-1.92c-0.48-0.36-1.2-0.6-2.04-0.6
	c-0.72,0-1.2,0.12-1.56,0.48s-0.6,0.72-0.6,1.08c0,0.36,0.12,0.6,0.48,0.84c0.24,0.24,0.96,0.48,2.04,0.72
	c2.64,0.6,4.68,1.2,5.76,1.8c1.2,0.6,2.04,1.32,2.52,2.16c0.48,0.84,0.84,1.92,0.84,3c0,1.32-0.36,2.52-1.08,3.6
	c-0.72,1.08-1.68,1.92-3,2.52c-1.32,0.6-2.88,0.84-4.8,0.84c-3.36,0-5.76-0.6-7.08-1.92C40.92,17.4,40.2,15.36,39.96,13.32z"/>
<path class="st0" d="M86.76,13.92v-4.2h0.84v1.68h1.68V9.72h0.84v4.2h-0.84v-1.8H87.6v1.8H86.76z"/>
<path class="st0" d="M94.68,13.92h-0.96l-0.36-0.96h-1.68l-0.36,0.96h-0.84l1.68-4.2H93L94.68,13.92z M93.12,12.24l-0.6-1.56
	l-0.6,1.56H93.12z"/>
<path class="st0" d="M95.16,13.92v-4.2H96l1.68,2.76V9.72h0.84v4.2h-0.84L96,11.16v2.76H95.16L95.16,13.92z"/>
<path class="st0" d="M99.36,9.72h1.56c0.36,0,0.6,0,0.84,0.12c0.24,0.12,0.48,0.24,0.6,0.36c0.12,0.24,0.36,0.36,0.36,0.72
	c0.12,0.24,0.12,0.6,0.12,0.96s0,0.6-0.12,0.84c-0.12,0.36-0.24,0.6-0.48,0.72c-0.12,0.12-0.36,0.24-0.6,0.36
	c-0.24,0-0.48,0.12-0.72,0.12h-1.56V9.72z M100.2,10.44v2.76h0.6c0.24,0,0.36,0,0.48,0c0.12,0,0.24-0.12,0.36-0.12
	c0.12-0.12,0.12-0.24,0.24-0.36c0-0.24,0.12-0.48,0.12-0.72c0-0.36,0-0.6-0.12-0.72c0-0.12-0.12-0.36-0.24-0.36
	c-0.12-0.12-0.24-0.12-0.36-0.24c-0.12,0-0.36,0-0.72,0h-0.36V10.44z"/>
<path class="st0" d="M103.56,13.92v-4.2h1.2l0.72,2.88l0.72-2.88h1.32v4.2h-0.72v-3.24l-0.84,3.24h-0.84l-0.72-3.24v3.24H103.56
	L103.56,13.92z"/>
<path class="st0" d="M112.2,13.92h-0.96l-0.36-0.96h-1.68l-0.36,0.96H108l1.68-4.2h0.84L112.2,13.92z M110.64,12.24l-0.6-1.56
	l-0.6,1.56H110.64z"/>
<path class="st0" d="M112.68,9.72h1.56c0.36,0,0.6,0,0.84,0.12c0.24,0.12,0.48,0.24,0.6,0.36c0.12,0.24,0.36,0.36,0.36,0.72
	c0.12,0.24,0.12,0.6,0.12,0.96s0,0.6-0.12,0.84c-0.12,0.36-0.24,0.6-0.48,0.72c-0.12,0.12-0.36,0.24-0.6,0.36
	c-0.24,0-0.48,0.12-0.72,0.12h-1.56V9.72z M113.52,10.44v2.76h0.6c0.24,0,0.36,0,0.48,0c0.12,0,0.24-0.12,0.36-0.12
	c0.12-0.12,0.12-0.24,0.24-0.36c0-0.24,0.12-0.48,0.12-0.72c0-0.36,0-0.6-0.12-0.72c0-0.12-0.12-0.36-0.24-0.36
	c-0.12-0.12-0.24-0.12-0.36-0.24c-0.12,0-0.36,0-0.72,0h-0.36V10.44z"/>
<path class="st0" d="M116.88,13.92v-4.2H120v0.72h-2.28v0.96h2.04v0.72h-2.04v1.08H120v0.72H116.88z"/>
<path class="st0" d="M89.4,18.72l0.84,0.24c-0.12,0.48-0.36,0.72-0.6,0.96c-0.24,0.24-0.6,0.36-1.08,0.36
	c-0.48,0-0.96-0.24-1.32-0.6s-0.48-0.84-0.48-1.56c0-0.72,0.12-1.2,0.48-1.56c0.36-0.36,0.84-0.6,1.44-0.6
	c0.48,0,0.96,0.12,1.2,0.48c0.24,0.12,0.36,0.48,0.36,0.72L89.4,17.4c0-0.24-0.12-0.36-0.36-0.48c-0.12-0.12-0.36-0.24-0.6-0.24
	c-0.36,0-0.6,0.12-0.72,0.36c-0.24,0.24-0.24,0.6-0.24,1.08s0.12,0.84,0.24,1.08c0.24,0.24,0.48,0.36,0.72,0.36
	c0.24,0,0.36-0.12,0.6-0.24C89.16,19.2,89.28,18.96,89.4,18.72z"/>
<path class="st0" d="M90.72,18.12c0-0.36,0.12-0.72,0.24-1.08c0.12-0.24,0.24-0.36,0.36-0.6c0.12-0.12,0.36-0.24,0.48-0.36
	c0.24-0.12,0.6-0.12,0.84-0.12c0.6,0,1.08,0.24,1.44,0.6c0.36,0.36,0.6,0.84,0.6,1.56c0,0.72-0.12,1.2-0.48,1.56s-0.84,0.6-1.44,0.6
	s-1.08-0.24-1.44-0.6S90.72,18.84,90.72,18.12z M91.56,18.12c0,0.48,0.12,0.84,0.36,1.08c0.24,0.24,0.48,0.36,0.84,0.36
	s0.6-0.12,0.84-0.36c0.24-0.24,0.36-0.6,0.36-1.08s-0.12-0.84-0.36-1.08c-0.24-0.24-0.48-0.36-0.84-0.36s-0.6,0.12-0.84,0.36
	C91.68,17.28,91.56,17.64,91.56,18.12z"/>
<path class="st0" d="M99.12,20.16v-4.08h1.2l0.72,2.76l0.72-2.76h1.2v4.08h-0.72v-3.24l-0.84,3.24h-0.84l-0.84-3.24v3.24H99.12
	L99.12,20.16z"/>
<path class="st0" d="M103.8,20.16v-4.08h3v0.72h-2.16v0.96h2.04v0.72h-2.04v1.08h2.28v0.72h-3.12V20.16z"/>
<path class="st0" d="M108.6,20.16V16.8h-1.2v-0.72h3.24v0.72h-1.2v3.36H108.6z"/>
<path class="st0" d="M111.12,20.16v-4.08h0.84v4.08H111.12z"/>
<path class="st0" d="M115.32,18.72l0.84,0.24c-0.12,0.48-0.36,0.72-0.6,0.96c-0.24,0.24-0.6,0.36-1.08,0.36
	c-0.6,0-0.96-0.24-1.32-0.6s-0.48-0.84-0.48-1.56c0-0.72,0.12-1.2,0.48-1.56c0.36-0.36,0.84-0.6,1.32-0.6c0.48,0,0.96,0.12,1.2,0.48
	c0.24,0.12,0.36,0.48,0.36,0.72l-0.84,0.24c0-0.24-0.12-0.36-0.24-0.48c-0.12-0.12-0.36-0.24-0.6-0.24c-0.36,0-0.6,0.12-0.72,0.36
	c-0.24,0.24-0.24,0.6-0.24,1.08s0.12,0.84,0.24,1.08c0.24,0.24,0.48,0.36,0.72,0.36s0.36-0.12,0.6-0.24
	C115.08,19.2,115.2,18.96,115.32,18.72z"/>
<path class="st0" d="M95.16,18.72H96c0,0.24,0.12,0.48,0.24,0.6c0.12,0.12,0.36,0.24,0.6,0.24c0.24,0,0.48,0,0.6-0.12
	c0.12-0.12,0.24-0.24,0.24-0.36c0-0.12,0-0.12-0.12-0.24c0-0.12-0.12-0.12-0.24-0.12s-0.36-0.12-0.6-0.12
	c-0.48-0.12-0.72-0.24-0.96-0.36C95.52,18,95.4,17.76,95.4,17.4c0-0.24,0-0.36,0.12-0.6c0.12-0.24,0.24-0.36,0.48-0.36
	c0.24-0.12,0.48-0.12,0.84-0.12c0.48,0,0.84,0.12,1.2,0.36c0.24,0.24,0.36,0.6,0.36,0.96h-0.84c0-0.24-0.12-0.36-0.24-0.48
	c-0.12-0.12-0.24-0.12-0.48-0.12c-0.24,0-0.48,0-0.6,0.12c-0.12,0.12-0.12,0.12-0.12,0.24s0,0.12,0.12,0.24
	c0.12,0.12,0.36,0.12,0.72,0.24s0.72,0.24,0.84,0.24c0.24,0.12,0.36,0.24,0.48,0.36c0.12,0.12,0.12,0.36,0.12,0.6
	c0,0.24-0.12,0.48-0.24,0.6c-0.12,0.24-0.36,0.36-0.6,0.48c-0.24,0.12-0.48,0.12-0.84,0.12c-0.48,0-0.96-0.12-1.2-0.36
	C95.28,19.68,95.16,19.2,95.16,18.72z"/>
<path class="st0" d="M116.64,18.72h0.84c0,0.24,0.12,0.48,0.24,0.6c0.12,0.12,0.36,0.24,0.6,0.24c0.24,0,0.48,0,0.6-0.12
	c0.12-0.12,0.24-0.24,0.24-0.36c0-0.12,0-0.12-0.12-0.24c0-0.12-0.12-0.12-0.24-0.12c-0.12,0-0.36-0.12-0.6-0.12
	c-0.48-0.12-0.72-0.24-0.96-0.36c-0.24-0.24-0.36-0.48-0.36-0.84c0-0.24,0-0.36,0.12-0.6c0.12-0.24,0.24-0.36,0.48-0.36
	c0.24-0.12,0.48-0.12,0.84-0.12c0.48,0,0.84,0.12,1.2,0.36c0.24,0.24,0.36,0.6,0.36,0.96h-0.84c0-0.24-0.12-0.36-0.24-0.48
	c-0.12-0.12-0.24-0.12-0.48-0.12c-0.24,0-0.48,0-0.6,0.12c-0.12,0.12-0.12,0.12-0.12,0.24s0,0.12,0.12,0.24
	c0.12,0.12,0.36,0.12,0.72,0.24s0.72,0.24,0.84,0.24c0.24,0.12,0.36,0.24,0.48,0.36c0.12,0.12,0.12,0.36,0.12,0.6
	c0,0.24-0.12,0.48-0.24,0.6c-0.12,0.24-0.36,0.36-0.6,0.48c-0.24,0.12-0.48,0.12-0.84,0.12c-0.48,0-0.96-0.12-1.2-0.36
	C116.76,19.68,116.64,19.2,116.64,18.72z"/>
<path class="st0" d="M98.88,6.48c0-0.12,0-0.12,0-0.24c0-0.24,0-0.36,0-0.48c0-0.6-0.24-1.32-0.84-1.68
	c0.12-0.12,0.36-0.24,0.48-0.36C98.88,3.36,99,2.88,99,2.4s-0.12-0.84-0.36-1.2c-0.24-0.36-0.48-0.6-0.84-0.72
	c-0.36-0.12-0.96-0.24-1.68-0.24H93v7.32h1.44v-3h0.12h0.24h0.96H96h0.12c0.84,0,1.08,0.36,1.2,1.08c0,0.12,0,0.36,0,0.48
	c0,0.12,0,0.12,0,0.24c0,0.48,0.12,0.84,0.24,1.2h1.56C99,7.44,99,6.96,98.88,6.48z M95.64,3.36h-1.08v-1.8h1.2c0.6,0,0.96,0,1.08,0
	c0.24,0,0.48,0.12,0.6,0.24c0.12,0.12,0.24,0.36,0.24,0.6s0,0.36-0.12,0.6c-0.12,0.24-0.24,0.24-0.36,0.36
	C96.72,3.36,96.36,3.36,95.64,3.36z"/>
<path class="st0" d="M86.76,7.68V0.36h5.04v1.2h-3.6v1.8h3v1.2h-3v3.12H86.76z"/>
<path class="st0" d="M100.44,7.68V0.36h5.4v1.2h-3.96v1.68h3.72v1.2h-3.72v2.04h4.08v1.2H100.44z"/>
<path class="st0" d="M106.8,5.16h1.44c0.12,0.48,0.24,0.84,0.48,1.08s0.6,0.36,1.08,0.36s0.84-0.12,1.08-0.36
	c0.24-0.24,0.36-0.48,0.36-0.72c0-0.12,0-0.36-0.12-0.48c0-0.12-0.24-0.24-0.48-0.24c-0.12-0.12-0.6-0.12-1.2-0.36
	c-0.84-0.24-1.32-0.48-1.68-0.72c-0.48-0.36-0.72-0.84-0.72-1.44c0-0.36,0.12-0.72,0.36-1.08c0.24-0.36,0.48-0.6,0.96-0.72
	c0.36-0.12,0.84-0.24,1.44-0.24c0.96,0,1.56,0.24,2.04,0.6c0.48,0.36,0.72,0.96,0.72,1.68h-1.44c-0.12-0.36-0.24-0.6-0.36-0.84
	c-0.24-0.12-0.48-0.24-0.96-0.24s-0.72,0.12-0.96,0.24c-0.12,0.12-0.24,0.24-0.24,0.48c0,0.12,0.12,0.36,0.24,0.48
	c0.24,0.12,0.6,0.36,1.32,0.48c0.72,0.12,1.2,0.36,1.56,0.48c0.36,0.24,0.6,0.48,0.84,0.72c0.24,0.36,0.24,0.72,0.24,1.2
	s-0.12,0.84-0.36,1.2c-0.24,0.36-0.6,0.6-0.96,0.84c-0.48,0.12-0.96,0.24-1.56,0.24c-0.96,0-1.68-0.24-2.16-0.6
	C107.28,6.72,106.92,6,106.8,5.16z"/>
<path class="st0" d="M114.12,7.68V0.36h1.44v2.88h2.88V0.36h1.44v7.32h-1.44V4.44h-2.88v3.24H114.12z"/>
</svg>
