<svg width="20" height="20" viewBox="0 0 20 20" fill="none" xmlns="http://www.w3.org/2000/svg">
<path fill-rule="evenodd" clip-rule="evenodd" d="M8 11C8.55228 11 9 10.5523 9 10C9 9.44772 8.55228 9 8 9C7.44772 9 7 9.44772 7 10C7 10.5523 7.44772 11 8 11ZM8 13C9.65685 13 11 11.6569 11 10C11 8.34315 9.65685 7 8 7C6.34315 7 5 8.34315 5 10C5 11.6569 6.34315 13 8 13Z" fill="white"/>
<path d="M1 9H6V11H1V9Z" fill="white"/>
<path fill-rule="evenodd" clip-rule="evenodd" d="M16.0546 5.83207L10.0546 9.83207L8.94524 8.16797L14.9452 4.16797L16.0546 5.83207ZM14.3667 16.774L8.8667 12.274L10.1332 10.7261L15.6332 15.2261L14.3667 16.774Z" fill="white"/>
<path fill-rule="evenodd" clip-rule="evenodd" d="M17 5C17.5523 5 18 4.55228 18 4C18 3.44772 17.5523 3 17 3C16.4477 3 16 3.44772 16 4C16 4.55228 16.4477 5 17 5ZM17 7C18.6569 7 20 5.65685 20 4C20 2.34315 18.6569 1 17 1C15.3431 1 14 2.34315 14 4C14 5.65685 15.3431 7 17 7Z" fill="white"/>
<path fill-rule="evenodd" clip-rule="evenodd" d="M16.2344 15.0136C17.3389 13.6419 18 11.8982 18 10C18 8.54234 17.6101 7.17574 16.929 5.99876C16.9526 5.99959 16.9762 6 17 6C17.7153 6 18.343 5.62444 18.6965 5.05975C19.5261 6.51703 20 8.20317 20 10C20 12.3467 19.1916 14.5047 17.8382 16.2106C17.5614 15.5671 16.9567 15.0979 16.2344 15.0136ZM14.0012 16.929C12.8243 17.6101 11.4577 18 10 18C5.58172 18 2 14.4183 2 10C2 5.58172 5.58172 2 10 2C11.8982 2 13.6419 2.66108 15.0136 3.76555C15.0979 3.0433 15.5671 2.43856 16.2106 2.16184C14.5047 0.808367 12.3467 0 10 0C4.47715 0 0 4.47715 0 10C0 15.5228 4.47715 20 10 20C11.7968 20 13.483 19.5261 14.9403 18.6965C14.3756 18.343 14 17.7153 14 17C14 16.9762 14.0004 16.9526 14.0012 16.929Z" fill="white"/>
<path fill-rule="evenodd" clip-rule="evenodd" d="M16 18C16.5523 18 17 17.5523 17 17C17 16.4477 16.5523 16 16 16C15.4477 16 15 16.4477 15 17C15 17.5523 15.4477 18 16 18ZM16 20C17.6569 20 19 18.6569 19 17C19 15.3431 17.6569 14 16 14C14.3431 14 13 15.3431 13 17C13 18.6569 14.3431 20 16 20Z" fill="white"/>
</svg>
