<?xml version="1.0" encoding="utf-8"?>
<!-- Generator: Adobe Illustrator 22.1.0, SVG Export Plug-In . SVG Version: 6.00 Build 0)  -->
<svg version="1.1" id="Layer_2_1_" xmlns="http://www.w3.org/2000/svg" xmlns:xlink="http://www.w3.org/1999/xlink" x="0px" y="0px"
	 viewBox="0 0 40 40" style="enable-background:new 0 0 40 40;" xml:space="preserve">
<style type="text/css">
	.st0{fill:#0ABF53;}
	.st1{fill:none;stroke:#00112C;stroke-width:2;stroke-linecap:round;stroke-miterlimit:10;}
</style>
<g>
	<path class="st0" d="M20,39.8c-0.4,0-0.9-0.1-1.3-0.3c-1.7-0.8-4.1-2.1-6.6-3.8C6.7,32,4,28.4,4,25V5.4C4,4.1,4.8,3,6,2.5
		C9.5,1.3,15,0,20,0s10.5,1.3,14,2.5c1.2,0.4,2,1.6,2,2.8V6c0,0.9-0.4,1.7-1,2.2L17.7,23.7c-0.4,0.4-1,0.3-1.4-0.1s-0.3-1,0.1-1.4
		L33.7,6.8C33.9,6.7,34,6.4,34,6.1V5.4c0-0.4-0.3-0.8-0.7-0.9C30,3.3,24.7,2,20,2S10,3.3,6.7,4.4C6.3,4.6,6,4.9,6,5.4V25
		c0,2.7,2.5,5.8,7.2,9c2.4,1.6,4.8,2.9,6.4,3.7c0.3,0.1,0.6,0.1,0.8,0c1.6-0.8,4-2.1,6.4-3.7c4.7-3.2,7.2-6.3,7.2-9v-7
		c0-0.6,0.4-1,1-1s1,0.4,1,1v7c0,3.4-2.7,7-8,10.6c-2.5,1.7-5,3-6.7,3.9C20.9,39.7,20.4,39.8,20,39.8z"/>
</g>
<g>
	<circle class="st0" cx="35" cy="13" r="1"/>
</g>
<g>
	<circle class="st0" cx="13" cy="27" r="1"/>
</g>
<g>
	<path class="st1" d="M12,28"/>
</g>
</svg>
