<svg width="20" height="20" viewBox="0 0 20 20" fill="none" xmlns="http://www.w3.org/2000/svg">
<g clip-path="url(#clip0)">
<path d="M9.29998 0.3L2.09998 7.5L4.59998 10L2.09998 12.5L9.39998 19.7C9.79998 20.1 10.4 20.1 10.8 19.7L19.7 10.7C20.1 10.3 20.1 9.7 19.7 9.3L10.7 0.3C10.3 -0.1 9.69998 -0.1 9.29998 0.3ZM4.89998 7.5L6.49998 5.9L10.6 10L6.49998 14.1L4.89998 12.5L7.39998 10L4.89998 7.5ZM9.99998 17.6L7.89998 15.5L13.4 10L7.89998 4.5L9.99998 2.4L17.6 10L9.99998 17.6Z" fill="white"/>
<path d="M1 11.1C1.55228 11.1 2 10.6523 2 10.1C2 9.54769 1.55228 9.09998 1 9.09998C0.447715 9.09998 0 9.54769 0 10.1C0 10.6523 0.447715 11.1 1 11.1Z" fill="white"/>
</g>
<defs>
<clipPath id="clip0">
<rect width="20" height="20" fill="white"/>
</clipPath>
</defs>
</svg>
