<?xml version="1.0" encoding="utf-8"?>
<!-- Generator: Adobe Illustrator 24.1.0, SVG Export Plug-In . SVG Version: 6.00 Build 0)  -->
<svg version="1.1" id="Layer_1" xmlns="http://www.w3.org/2000/svg" xmlns:xlink="http://www.w3.org/1999/xlink" x="0px" y="0px"
	 viewBox="0 0 20 20" style="enable-background:new 0 0 20 20;" xml:space="preserve">
<style type="text/css">
	.st0{fill:#FFFFFF;}
</style>
<g>
	<path class="st0" d="M17,7c-0.6,0-1,0.4-1,1v3.4c0,1.3-0.6,2.5-1.7,3.3l-4.4,3l-4.2-3c-1-0.8-1.7-2-1.7-3.3V3.6
		c3.5-1.8,7.7-1.9,11.3-0.3l-7,7c-0.4,0.4-0.4,1,0,1.4C8.5,11.9,8.7,12,9,12s0.5-0.1,0.7-0.3l8-8c0,0,0-0.1,0.1-0.1
		c0,0,0.1-0.1,0.1-0.1c0,0,0,0,0-0.1c0-0.1,0-0.1,0.1-0.2c0-0.1,0-0.1,0-0.2c0-0.1,0-0.1,0-0.2c0-0.1,0-0.1,0-0.2
		c0-0.1-0.1-0.1-0.1-0.2c0-0.1-0.1-0.1-0.1-0.2c0,0,0,0,0-0.1c0,0-0.1,0-0.1-0.1c0,0-0.1-0.1-0.1-0.1c-4.6-2.6-10.4-2.6-15,0
		C2.2,2.3,2,2.6,2,3v8.4c0,1.9,0.9,3.8,2.5,4.9l4.8,3.4c0.2,0.1,0.4,0.2,0.6,0.2c0.2,0,0.4-0.1,0.6-0.2l5-3.5c1.6-1.1,2.6-3,2.6-4.9
		V8C18,7.4,17.6,7,17,7z"/>
	<circle class="st0" cx="7" cy="13" r="1"/>
</g>
</svg>
