<svg width="20" height="20" viewBox="0 0 20 20" fill="none" xmlns="http://www.w3.org/2000/svg">
<g clip-path="url(#clip0)">
<path d="M5.20001 14.4L2.89001 17.48L1.71001 16.3C1.32001 15.91 0.690007 15.91 0.300007 16.3C-0.0899927 16.69 -0.0899927 17.32 0.300007 17.71L2.30001 19.71C2.48001 19.9 2.74001 20 3.00001 20C3.02001 20 3.05001 20 3.07001 20C3.36001 19.98 3.63001 19.83 3.80001 19.6L6.80001 15.6C7.13001 15.16 7.04001 14.53 6.60001 14.2C6.16001 13.87 5.53001 13.96 5.20001 14.4Z" fill="#00112C"/>
<path d="M5.20001 7.4L2.89001 10.48L1.71001 9.29C1.32001 8.9 0.690007 8.9 0.300007 9.29C-0.0899927 9.68 -0.0899927 10.31 0.300007 10.7L2.30001 12.7C2.48001 12.9 2.74001 13 3.00001 13C3.02001 13 3.05001 13 3.07001 13C3.36001 12.98 3.63001 12.83 3.80001 12.6L6.80001 8.6C7.13001 8.16 7.04001 7.53 6.60001 7.2C6.16001 6.87 5.53001 6.96 5.20001 7.4Z" fill="#00112C"/>
<path d="M5.20001 0.4L2.89001 3.48L1.71001 2.29C1.32001 1.9 0.690007 1.9 0.300007 2.29C-0.0899927 2.68 -0.0899927 3.31 0.300007 3.7L2.30001 5.7C2.48001 5.9 2.74001 6 3.00001 6C3.02001 6 3.05001 6 3.07001 6C3.36001 5.98 3.63001 5.83 3.80001 5.6L6.80001 1.6C7.13001 1.16 7.04001 0.53 6.60001 0.2C6.16001 -0.13 5.53001 -0.0400001 5.20001 0.4Z" fill="#00112C"/>
<path d="M10 4H19C19.55 4 20 3.55 20 3C20 2.45 19.55 2 19 2H10C9.45 2 9 2.45 9 3C9 3.55 9.45 4 10 4Z" fill="#00112C"/>
<path d="M19 9H10C9.45 9 9 9.45 9 10C9 10.55 9.45 11 10 11H19C19.55 11 20 10.55 20 10C20 9.45 19.55 9 19 9Z" fill="#00112C"/>
<path d="M19 16H10C9.45 16 9 16.45 9 17C9 17.55 9.45 18 10 18H19C19.55 18 20 17.55 20 17C20 16.45 19.55 16 19 16Z" fill="#00112C"/>
</g>
<defs>
<clipPath id="clip0">
<rect width="20" height="20" fill="white"/>
</clipPath>
</defs>
</svg>
