<?xml version="1.0" encoding="UTF-8"?>
<svg width="160px" height="70px" viewBox="0 0 160 70" version="1.1" xmlns="http://www.w3.org/2000/svg" xmlns:xlink="http://www.w3.org/1999/xlink">
    <!-- Generator: Sketch 50.2 (55047) - http://www.bohemiancoding.com/sketch -->
    <title>spotify-logobar-svg</title>
    <desc>Created with Sketch.</desc>
    <defs></defs>
    <g id="spotify-logobar-svg" stroke="none" stroke-width="1" fill="none" fill-rule="evenodd">
        <path d="M54.7604169,32.7921309 C49.7454526,29.8139818 41.4736518,29.5401506 36.6863057,30.9931164 C35.9174479,31.2263742 35.1045704,30.792286 34.8716259,30.0235849 C34.6385247,29.2544137 35.072143,28.4420061 35.8414708,28.2082784 C41.3370495,26.54007 50.4724838,26.8623073 56.24581,30.2894267 C56.9372808,30.6998601 57.1641157,31.5929446 56.7541522,32.2833187 C56.3438754,32.9747894 55.4501644,33.202721 54.7604169,32.7921309 Z M54.5962435,37.203194 C54.2443986,37.7741978 53.4979423,37.9530967 52.9277218,37.6026617 C48.74694,35.0327529 42.3715925,34.2881765 37.4252426,35.789705 C36.7837445,35.983486 36.106216,35.621772 35.9114951,34.9816837 C35.7181841,34.3401856 36.0800548,33.6639103 36.7202997,33.4688761 C42.3708092,31.7542982 49.3951742,32.584721 54.1970891,35.5357689 C54.7673096,35.8868305 54.9468351,36.6336001 54.5962435,37.203194 Z M52.6924275,41.439588 C52.4129568,41.8979575 51.8159484,42.0416092 51.359302,41.7622952 C47.7058176,39.5293492 43.1075529,39.02508 37.692181,40.2621765 C37.1702099,40.3817035 36.6501187,40.05461 36.5310616,39.5329522 C36.4115346,39.0111378 36.7373749,38.4910465 37.2604426,38.3719895 C43.1866632,37.0172457 48.2700853,37.6001552 52.3708169,40.1059925 C52.8280899,40.3853066 52.9720549,40.9824716 52.6924275,41.439588 Z M45.5576214,19 C54.1500929,19 61.1152428,25.9653065 61.1152428,34.5574647 C61.1152428,43.1502496 54.1500929,50.1152428 45.5576214,50.1152428 C36.9654632,50.1152428 30,43.1502496 30,34.5574647 C30,25.9653065 36.9654632,19 45.5576214,19 Z M72.3268124,33.3623514 C75.5996276,34.1583103 76.934163,35.3936837 76.934163,37.627413 C76.934163,40.2704792 74.9147364,41.978321 71.7893325,41.978321 C69.5800413,41.978321 67.5328869,41.1933279 65.8682816,39.7071514 C65.797004,39.6443332 65.7891713,39.5359286 65.850893,39.4632412 L67.321404,37.7131028 C67.3516382,37.6769157 67.3948747,37.6549841 67.4421842,37.6510678 C67.4871439,37.6484047 67.5357067,37.6625035 67.5712671,37.6930511 C69.001988,38.9318708 70.2809112,39.4601081 71.8488611,39.4601081 C73.2604702,39.4601081 74.1377326,38.8493142 74.1377326,37.8667803 C74.1377326,36.9798054 73.703801,36.4838389 71.1334223,35.8918434 C68.1134466,35.1618358 66.3659713,34.216429 66.3659713,31.5457917 C66.3659713,29.0553065 68.3916641,27.3148807 71.2921128,27.3148807 C73.2646999,27.3148807 74.9523333,27.8995134 76.4510421,29.1021461 C76.5235729,29.1602647 76.5382984,29.2652229 76.4844094,29.3413567 L75.1727455,31.1901871 C75.145331,31.229194 75.1036611,31.2550419 75.0566649,31.2619347 C75.0096687,31.2694541 74.9620459,31.2580183 74.9238223,31.2296639 C73.6644808,30.2906799 72.4635713,29.8346601 71.2523227,29.8346601 C70.0026938,29.8346601 69.1624017,30.4351149 69.1624017,31.3275727 C69.1624017,32.2721963 69.640823,32.7217932 72.3268124,33.3623514 Z M108.285013,30.9331179 C108.382295,30.9331179 108.460622,31.0123849 108.460622,31.1093537 L108.460622,33.1765598 C108.460622,33.2735286 108.382295,33.3527955 108.285013,33.3527955 L105.638344,33.3527955 L105.638344,38.3245233 C105.638344,39.1098298 105.98267,39.4601081 106.754347,39.4601081 C107.254857,39.4601081 107.702887,39.3526435 108.16627,39.1195423 C108.219845,39.0929111 108.285013,39.0944777 108.337492,39.127375 C108.389345,39.1591758 108.421146,39.2166678 108.421146,39.2772929 L108.421146,41.245807 C108.421146,41.3086252 108.386995,41.3676838 108.332166,41.398388 C107.657614,41.780937 106.941705,41.9590526 106.079012,41.9590526 C103.957133,41.9590526 102.881391,40.8631013 102.881391,38.7015895 L102.881391,33.3527955 L101.724814,33.3527955 C101.628002,33.3527955 101.549675,33.2735286 101.549675,33.1765598 L101.549675,31.1093537 C101.549675,31.0123849 101.628002,30.9331179 101.724814,30.9331179 L102.881391,30.9331179 L102.881391,28.2270769 C102.881391,28.1299514 102.960501,28.0508411 103.057783,28.0508411 L105.462735,28.0508411 C105.55986,28.0508411 105.638344,28.1299514 105.638344,28.2270769 L105.638344,30.9331179 L108.285013,30.9331179 Z M117.506607,30.9436138 L121.615328,30.9436138 C121.688329,30.9436138 121.753967,30.9887301 121.779658,31.0568746 L124.589248,38.3884381 L127.1543,31.0617309 C127.178738,30.9912366 127.245943,30.9436138 127.320823,30.9436138 L129.824624,30.9436138 C129.883056,30.9436138 129.936318,30.9724381 129.969372,31.0200609 C130.002583,31.0683103 130.008849,31.129562 129.987858,31.1837643 L125.815222,41.9662587 C124.949708,44.1919986 123.968115,45.0192884 122.192128,45.0192884 C121.242648,45.0192884 120.474417,44.8225309 119.623316,44.3614982 C119.542013,44.3177918 119.508802,44.2184731 119.547652,44.1340366 L120.36288,42.345518 C120.382305,42.3008716 120.420998,42.266721 120.466898,42.2505857 C120.513267,42.2361735 120.564023,42.2402465 120.607103,42.2637446 C121.06328,42.5134511 121.50943,42.6398709 121.933179,42.6398709 C122.4575,42.6398709 122.841459,42.4675515 123.231997,41.6007849 L119.792032,33.3527955 L117.546397,33.3527955 L117.546397,41.6029781 C117.546397,41.7001035 117.467287,41.7792138 117.370162,41.7792138 L114.964896,41.7792138 C114.867927,41.7792138 114.7896,41.7001035 114.7896,41.6029781 L114.7896,33.3527955 L113.634121,33.3527955 C113.537152,33.3527955 113.457572,33.2735286 113.457572,33.1765598 L113.457572,31.0988579 C113.457572,31.0017324 113.537152,30.9226221 113.634121,30.9226221 L114.7896,30.9226221 L114.7896,30.4136533 C114.7896,28.048178 115.963722,26.7971392 118.185389,26.7971392 C119.098369,26.7971392 119.707909,26.9426708 120.184451,27.0844426 C120.259018,27.1071575 120.308834,27.1757719 120.308834,27.2533156 L120.308834,29.280105 C120.308834,29.3365004 120.282516,29.3899194 120.236146,29.4231301 C120.19103,29.4563407 120.133068,29.4651134 120.077613,29.4475681 C119.626449,29.2971803 119.223692,29.1975483 118.722242,29.1975483 C117.881324,29.1975483 117.506607,29.6335164 117.506607,30.6113506 L117.506607,30.9436138 Z M112.160633,30.9331179 C112.257602,30.9331179 112.336869,31.0123849 112.336869,31.1093537 L112.336869,41.6029781 C112.336869,41.7001035 112.257602,41.7792138 112.160633,41.7792138 L109.755368,41.7792138 C109.658242,41.7792138 109.579132,41.7001035 109.579132,41.6029781 L109.579132,31.1093537 C109.579132,31.0123849 109.658242,30.9331179 109.755368,30.9331179 L112.160633,30.9331179 Z M110.970219,26.1551711 C111.922676,26.1551711 112.695137,26.9265354 112.695137,27.8794616 C112.695137,28.8328578 111.922676,29.6050054 110.970219,29.6050054 C110.01745,29.6050054 109.244049,28.8328578 109.244049,27.8794616 C109.244049,26.9265354 110.01745,26.1551711 110.970219,26.1551711 Z M84.0050543,30.7131757 C86.5223273,30.7131757 89.0703045,32.6512989 89.0703045,36.3561659 C89.0703045,40.0602495 86.5223273,41.9979028 84.0050543,41.9979028 C82.6507805,41.9979028 81.5394771,41.4955134 80.6228946,40.4669233 L80.6228946,44.7830541 C80.6228946,44.8801796 80.5440976,44.9592899 80.4471288,44.9592899 L78.04202,44.9592899 C77.9448946,44.9592899 77.8662543,44.8801796 77.8662543,44.7830541 L77.8662543,31.1093537 C77.8662543,31.0123849 77.9448946,30.9331179 78.04202,30.9331179 L80.4471288,30.9331179 C80.5440976,30.9331179 80.6228946,31.0123849 80.6228946,31.1093537 L80.6228946,32.3400274 C81.5393204,31.2467392 82.6504672,30.7131757 84.0050543,30.7131757 Z M95.6019927,30.7131757 C98.8328247,30.7131757 101.36263,33.1917552 101.36263,36.3561659 C101.36263,39.5309157 98.8152795,42.0187378 95.5622026,42.0187378 C92.3428064,42.0187378 89.8206771,39.5489309 89.8206771,36.3964259 C89.8206771,33.2093005 92.360195,30.7131757 95.6019927,30.7131757 Z M86.2738741,36.3561659 C86.2738741,34.500286 85.0851836,33.1538449 83.4484626,33.1538449 C81.8035957,33.1538449 80.5630527,34.5300503 80.5630527,36.3561659 C80.5630527,38.1824381 81.8035957,39.5584868 83.4484626,39.5584868 C85.1119714,39.5584868 86.2738741,38.24228 86.2738741,36.3561659 Z M95.6019927,39.5782252 C97.3427319,39.5782252 98.6061464,38.2405568 98.6061464,36.3964259 C98.6061464,34.5584046 97.2974589,33.1731134 95.5622026,33.1731134 C93.8327425,33.1731134 92.5777874,34.5117218 92.5777874,36.3561659 C92.5777874,38.1929339 93.8777022,39.5782252 95.6019927,39.5782252 Z" id="spotify" fill="#00112C"></path>
    </g>
</svg>