<?xml version="1.0" encoding="UTF-8"?>
<svg width="160px" height="70px" viewBox="0 0 160 70" version="1.1" xmlns="http://www.w3.org/2000/svg" xmlns:xlink="http://www.w3.org/1999/xlink">
    <!-- Generator: Sketch 51.3 (57544) - http://www.bohemiancoding.com/sketch -->
    <title>uber-logobar-svg</title>
    <desc>Created with Sketch.</desc>
    <defs></defs>
    <g id="uber-logobar-svg" stroke="none" stroke-width="1" fill="none" fill-rule="evenodd">
        <g id="uber-svg-logo-black" transform="translate(48.000000, 24.000000)" fill="#00112C" fill-rule="nonzero">
            <path d="M3.22010471,13.3466667 C3.22010471,16.8155039 5.45172775,19.0564341 8.40712042,19.0564341 C11.332356,19.0564341 13.5941361,16.7541085 13.5941361,13.3466667 L13.5941361,0.0852713178 L16.7606283,0.0852713178 L16.7606283,21.5736434 L13.6242932,21.5736434 L13.6242932,19.5782946 C12.206911,21.0824806 10.2467016,21.9420155 8.0452356,21.9420155 C3.52167539,21.9420155 0.0536125654,18.595969 0.0536125654,13.5308527 L0.0536125654,0.0852713178 L3.22010471,0.0852713178 L3.22010471,13.3466667 Z M19.8668063,21.5736434 L19.8668063,0.0852713178 L22.9126702,0.0852713178 L22.9126702,7.91317829 C24.3478733,6.4169189 26.3167335,5.5753954 28.3710995,5.58015504 C32.8946597,5.58015504 36.4531937,9.23317829 36.4531937,13.7764341 C36.4531937,18.2889922 32.8946597,21.9420155 28.3710995,21.9420155 C26.2299476,21.9420155 24.2697382,21.0517829 22.8825131,19.6089922 L22.8825131,21.5736434 L19.8668063,21.5736434 Z M22.852356,13.7764341 C22.852356,16.7848062 25.2046073,19.2099225 28.16,19.2099225 C31.0550785,19.2099225 33.4374869,16.7848062 33.4374869,13.7764341 C33.4374869,10.7373643 31.0550785,8.34294574 28.16,8.34294574 C25.2347644,8.34294574 22.852356,10.7373643 22.852356,13.7764341 Z M38.2626178,13.7457364 C38.2626178,9.32527132 41.6703665,5.61085271 46.1637696,5.61085271 C50.5968586,5.61085271 53.853822,9.07968992 53.853822,13.7457364 L53.853822,14.7587597 L41.3386387,14.7587597 C41.7608377,17.3066667 43.8416754,19.2099225 46.4351832,19.2099225 C48.2144503,19.2099225 49.7223037,18.4731783 50.8682723,16.9075969 L53.0697382,18.5652713 C51.5317277,20.6527132 49.2397906,21.9113178 46.4351832,21.9113178 C41.8211518,21.9113178 38.2626178,18.4117829 38.2626178,13.7457364 Z M46.1034555,8.31224806 C43.8416754,8.31224806 41.9417801,9.90852713 41.3989529,12.3029457 L50.777801,12.3029457 C50.2651309,9.90852713 48.3652356,8.31224806 46.1034555,8.31224806 Z M63.9865969,8.68062016 L62.72,8.68062016 C60.7296335,8.68062016 59.2820942,10.2462016 59.2820942,12.6713178 L59.2820942,21.5736434 L56.2362304,21.5736434 L56.2362304,5.91782946 L59.2519372,5.91782946 L59.2519372,7.85178295 C60.0058639,6.59317829 61.2423037,5.79503876 62.9310995,5.79503876 L63.9865969,5.79503876 L63.9865969,8.68062016 Z" id="Shape"></path>
        </g>
    </g>
</svg>